<svg xmlns="http://www.w3.org/2000/svg" viewBox="0 0 89.478 85.056" enable-background="new 0 0 89.478 85.056"><g fill-rule="evenodd"><path fill="#efcaa4" d="m79.7 29.6c1.861-2.142 3.071-3.855 3.806-5.01 1.997-2.875 4.055-5.793 3.112-9.722-.301-.879-.865-1.681-1.753-2.38-2.688-2.113-6.543-.878-9.347.142-7.04 2.557-13.731 10.79-16.05 13.08-2.967 2.932-12.226 12.167-14.774 14.07l13.45 12.853c0 0 4.427-4.79 6.961-7.334 4.463-4.481 10.468-10.954 14.59-15.698"/><path fill="#fae2cb" d="m76.74 23.05c-2.02-2.225-4.275-4.56-2.747-6.318 1.528-1.759 6.551-6.438 10.373-3.38 3.822 3.057.889 7.523-1.968 9.974-2.858 2.452-3.553 1.917-5.658-.276"/><path fill="#d1ad88" d="m67.924 34.577c.674.53 1.344.957 1.96 1.239-.515-.524-1.202-1.224-1.96-2.02v.779m0-8.392v-.693c2.301 1.53 4.58 4.183 5.723 6.842-1.807-2.125-3.958-4.466-5.723-6.149m-4.767 2.214c.843 2.264 2.824 4.651 4.767 6.178v-.78c-1.571-1.644-3.451-3.69-4.767-5.398m4.767-2.907v.693c-.739-.705-1.41-1.296-1.96-1.706.638.227 1.3.574 1.96 1.013"/></g></svg>