<svg xmlns="http://www.w3.org/2000/svg" viewBox="0 0 89.478 85.056" enable-background="new 0 0 89.478 85.056"><g fill-rule="evenodd"><path fill="#efcaa4" d="m49.949 85.06c-3.915-4.765-7.953-9.518-12.425-15.893-2.419-3.448-3.831-12.65-3.831-12.65s-1.658 3.829-4.846 1.707c-3.189-2.123-3.897-7.767-3.897-7.767s-4.306 2.142-5.932-1.037c-1.626-3.178-1.134-11.42-1.134-11.42s-4.504-4.247-8.108-8.396c-1.861-2.142-3.071-3.855-3.806-5.01-.398-.574-.776-1.148-1.123-1.719-.895-.245-5.165-1.555-4.827-4.154.167-1.28 1.319-2.514 2.787-3.687.285-.943.863-1.801 1.806-2.542.865-.68 1.916-.97 3.102-.948.297-.22.576-.436.832-.649 2.715-2.266 7.585-4.665 13.536-6.196 5.951-1.53 11.768-5.216 14.593-4.633 2.824.583 12.13 4.511 16.571 6.399 4.446 1.888 18.623 5.29 20.736 8.415 2.113 3.126 3.733 4.431 4.165 12.08.431 7.648 1.131 29.669 4.837 42.981.932 3.347 3.333 8.749 6.494 15.12h-39.53"/><path fill="#d1ad88" d="m48.776 43.43c-1.058-2.605.617-3.64 4.419-2.963 3.802.677 3.9-.577.5-1.841-3.399-1.264-9.84 1.684-5.865-1.076 3.975-2.76 19.232-12.564 14.748-10.915-4.483 1.649-8.454 5.885-11.82 2.053-3.366-3.832-.565-7.397 2.563-9.366 3.128-1.969.986-1.66-2.711-.639-3.697 1.02-9.746-1.045-12.317-2.555-2.571-1.51-1.56-8.689-2.768-6.926-1.208 1.762-1 3.681-3.546 4.578-2.545.896-6.828 1.514-8.952 1.277-2.123-.237-2.063-.399-3.403-2.74-1.34-2.342.979 3.312-1.592 1.803-2.571-1.51-7.079-2.773-9.487-3.231 3.618 1.935 7.18 2.492 18.447 12.829 4.546 4.171 7.665 8.08 10.497 10.479 4.585 3.874 7.804 5.432 11.287 9.233"/><path fill="#ab826d" d="m4.913 22.889c-.723-.192-5.241-1.502-4.894-4.172.17-1.308 1.369-2.566 2.882-3.762-1.027 3.121.747 6.116 2.01 7.934"/><path fill="#dbbcad" d="m12.738 23.05c2.02-2.225 4.275-4.559 2.747-6.318-1.528-1.758-6.551-6.437-10.373-3.38-3.822 3.057-.889 7.523 1.968 9.975 2.858 2.45 3.553 1.916 5.658-.277"/><path fill="#d1ad88" d="m33.692 56.51c0 0-1.658 3.829-4.847 1.707-3.188-2.122-3.896-7.767-3.896-7.767s-4.306 2.142-5.932-1.037c-1.626-3.178-1.134-11.42-1.134-11.42 3.232 3.179 13.1 12.596 15.809 18.517"/></g></svg>